<?xml version="1.0" encoding="UTF-8" standalone="no" ?>
<!DOCTYPE svg PUBLIC "-//W3C//DTD SVG 1.1//EN" "http://www.w3.org/Graphics/SVG/1.1/DTD/svg11.dtd">
<svg xmlns="http://www.w3.org/2000/svg" xmlns:xlink="http://www.w3.org/1999/xlink" version="1.1" width="1080" height="1080" viewBox="0 0 1080 1080" xml:space="preserve">
<desc>Created with Fabric.js 5.2.4</desc>
<defs>
</defs>
<g transform="matrix(1 0 0 1 540 540)" id="5692cc8a-be2b-4f6e-a932-c1fdaad618f4"  >
</g>
<g transform="matrix(1 0 0 1 540 540)" id="63ccf493-f9be-46ba-9c4c-8986000f7aae"  >
<rect style="stroke: none; stroke-width: 1; stroke-dasharray: none; stroke-linecap: butt; stroke-dashoffset: 0; stroke-linejoin: miter; stroke-miterlimit: 4; fill: rgb(255,255,255); fill-rule: nonzero; opacity: 1; visibility: hidden;" vector-effect="non-scaling-stroke"  x="-540" y="-540" rx="0" ry="0" width="1080" height="1080" />
</g>
<g transform="matrix(1 0 0 1 540 540)"  >
<g style="" vector-effect="non-scaling-stroke"   >
		<g transform="matrix(1.33 0 0 1.33 -295.51 16.08)"  >
<path style="stroke: none; stroke-width: 1; stroke-dasharray: none; stroke-linecap: butt; stroke-dashoffset: 0; stroke-linejoin: miter; stroke-miterlimit: 4; fill: rgb(255,255,255); fill-rule: nonzero; opacity: 1;" vector-effect="non-scaling-stroke"  transform=" translate(-20.35, 59.2)" d="M 8.371094 0 L 32.332031 0 L 32.332031 -118.40625 L 8.371094 -118.40625 Z M 8.371094 0" stroke-linecap="round" />
</g>
		<g transform="matrix(1.33 0 0 1.33 -248.18 13.39)"  >
<path style="stroke: none; stroke-width: 1; stroke-dasharray: none; stroke-linecap: butt; stroke-dashoffset: 0; stroke-linejoin: miter; stroke-miterlimit: 4; fill: rgb(255,255,255); fill-rule: nonzero; opacity: 1;" vector-effect="non-scaling-stroke"  transform=" translate(-20.19, 61.21)" d="M 8.207031 0 L 32.167969 0 L 32.167969 -87.964844 L 8.207031 -87.964844 Z M 20.1875 -97.648438 C 27.40625 -97.648438 32.988281 -103.144531 32.988281 -110.039062 C 32.988281 -117.011719 27.40625 -122.429688 20.1875 -122.429688 C 12.964844 -122.429688 7.386719 -117.011719 7.386719 -110.039062 C 7.386719 -103.144531 12.964844 -97.648438 20.1875 -97.648438 Z M 20.1875 -97.648438" stroke-linecap="round" />
</g>
		<g transform="matrix(1.33 0 0 1.33 -166.6 36.42)"  >
<path style="stroke: none; stroke-width: 1; stroke-dasharray: none; stroke-linecap: butt; stroke-dashoffset: 0; stroke-linejoin: miter; stroke-miterlimit: 4; fill: rgb(255,255,255); fill-rule: nonzero; opacity: 1;" vector-effect="non-scaling-stroke"  transform=" translate(-46.2, 43.98)" d="M 87.71875 -55.222656 C 86.652344 -75.164062 71.554688 -89.851562 47.757812 -89.851562 C 21.417969 -89.851562 4.59375 -72.292969 4.59375 -44.0625 C 4.59375 -15.34375 21.417969 1.886719 47.921875 1.886719 C 71.0625 1.886719 86.570312 -11.488281 87.800781 -32.25 L 65.480469 -32.25 C 64.003906 -22.648438 57.769531 -16.902344 48.167969 -16.902344 C 36.269531 -16.902344 28.882812 -26.75 28.882812 -44.0625 C 28.882812 -61.050781 36.269531 -71.0625 48.085938 -71.0625 C 57.933594 -71.0625 64.085938 -64.496094 65.480469 -55.222656 Z M 87.71875 -55.222656" stroke-linecap="round" />
</g>
		<g transform="matrix(1.33 0 0 1.33 -48.61 36.42)"  >
<path style="stroke: none; stroke-width: 1; stroke-dasharray: none; stroke-linecap: butt; stroke-dashoffset: 0; stroke-linejoin: miter; stroke-miterlimit: 4; fill: rgb(255,255,255); fill-rule: nonzero; opacity: 1;" vector-effect="non-scaling-stroke"  transform=" translate(-48.17, 43.98)" d="M 48.167969 1.886719 C 74.753906 1.886719 91.738281 -15.097656 91.738281 -44.0625 C 91.738281 -72.621094 74.507812 -89.851562 48.167969 -89.851562 C 21.828125 -89.851562 4.59375 -72.539062 4.59375 -44.0625 C 4.59375 -15.179688 21.582031 1.886719 48.167969 1.886719 Z M 48.167969 -16.410156 C 36.351562 -16.410156 28.882812 -26.339844 28.882812 -43.980469 C 28.882812 -61.460938 36.515625 -71.554688 48.167969 -71.554688 C 59.820312 -71.554688 67.367188 -61.460938 67.367188 -43.980469 C 67.367188 -26.339844 59.902344 -16.410156 48.167969 -16.410156 Z M 48.167969 -16.410156" stroke-linecap="round" />
</g>
		<g transform="matrix(1.33 0 0 1.33 73.61 35.33)"  >
<path style="stroke: none; stroke-width: 1; stroke-dasharray: none; stroke-linecap: butt; stroke-dashoffset: 0; stroke-linejoin: miter; stroke-miterlimit: 4; fill: rgb(255,255,255); fill-rule: nonzero; opacity: 1;" vector-effect="non-scaling-stroke"  transform=" translate(-48.62, 44.8)" d="M 7.796875 0 L 31.757812 0 L 31.757812 -50.464844 C 31.757812 -61.871094 38.566406 -69.75 49.316406 -69.75 C 60.066406 -69.75 65.480469 -63.183594 65.480469 -51.695312 L 65.480469 0 L 89.441406 0 L 89.441406 -56.699219 C 89.441406 -77.296875 78.445312 -89.605469 58.917969 -89.605469 C 45.378906 -89.605469 36.105469 -83.207031 31.425781 -72.292969 L 30.933594 -72.292969 L 30.933594 -87.964844 L 7.796875 -87.964844 Z M 7.796875 0" stroke-linecap="round" />
</g>
		<g transform="matrix(1.33 0 0 1.33 212.03 16.08)"  >
<path style="stroke: none; stroke-width: 1; stroke-dasharray: none; stroke-linecap: butt; stroke-dashoffset: 0; stroke-linejoin: miter; stroke-miterlimit: 4; fill: rgb(4,83,255); fill-rule: nonzero; opacity: 1;" vector-effect="non-scaling-stroke"  transform=" translate(-60.68, 59.2)" d="M 9.847656 -118.40625 L 9.847656 0 L 55.058594 0 C 90.589844 0 111.515625 -22.074219 111.515625 -59.65625 C 111.515625 -97.238281 90.589844 -118.40625 55.058594 -118.40625 Z M 34.628906 -97.976562 L 52.105469 -97.976562 C 73.933594 -97.976562 86.242188 -84.355469 86.242188 -59.574219 C 86.242188 -33.972656 74.261719 -20.515625 52.105469 -20.515625 L 34.628906 -20.515625 Z M 34.628906 -97.976562" stroke-linecap="round" />
</g>
		<g transform="matrix(1.33 0 0 1.33 340.4 36.09)"  >
<path style="stroke: none; stroke-width: 1; stroke-dasharray: none; stroke-linecap: butt; stroke-dashoffset: 0; stroke-linejoin: miter; stroke-miterlimit: 4; fill: rgb(4,83,255); fill-rule: nonzero; opacity: 1;" vector-effect="non-scaling-stroke"  transform=" translate(-44.39, 44.23)" d="M 41.765625 -15.917969 C 33.644531 -15.917969 28.226562 -20.023438 28.226562 -26.585938 C 28.226562 -32.824219 33.316406 -36.84375 42.257812 -37.5 L 60.804688 -38.648438 L 60.804688 -32.25 C 60.804688 -22.730469 52.1875 -15.917969 41.765625 -15.917969 Z M 33.890625 1.394531 C 44.886719 1.394531 55.796875 -4.101562 60.722656 -13.457031 L 61.214844 -13.457031 L 61.214844 0 L 84.355469 0 L 84.355469 -60.476562 C 84.355469 -78.199219 69.667969 -89.851562 47.101562 -89.851562 C 23.796875 -89.851562 9.273438 -78.117188 8.371094 -61.050781 L 30.277344 -61.050781 C 31.425781 -67.53125 37.089844 -71.964844 46.035156 -71.964844 C 55.058594 -71.964844 60.804688 -67.203125 60.804688 -59 L 60.804688 -53.171875 L 38.648438 -51.859375 C 16.738281 -50.546875 4.429688 -41.273438 4.429688 -25.273438 C 4.429688 -9.4375 17.148438 1.394531 33.890625 1.394531 Z M 33.890625 1.394531" stroke-linecap="round" />
</g>
		<g transform="matrix(1.33 0 0 1.33 457.95 58.09)"  >
<path style="stroke: none; stroke-width: 1; stroke-dasharray: none; stroke-linecap: butt; stroke-dashoffset: 0; stroke-linejoin: miter; stroke-miterlimit: 4; fill: rgb(4,83,255); fill-rule: nonzero; opacity: 1;" vector-effect="non-scaling-stroke"  transform=" translate(-45.62, 27.69)" d="M 19.039062 32.578125 C 41.519531 32.578125 52.515625 24.535156 60.066406 1.96875 L 90.34375 -87.964844 L 65.070312 -87.964844 L 46.363281 -19.203125 L 45.953125 -19.203125 L 27.242188 -87.964844 L 0.902344 -87.964844 L 31.507812 0.0820312 C 31.675781 0.410156 30.769531 3.9375 30.769531 4.265625 C 29.128906 11.242188 24.78125 14.03125 16 14.03125 C 15.097656 14.03125 10.75 14.03125 10.011719 13.867188 L 10.011719 32.332031 C 10.75 32.496094 18.214844 32.578125 19.039062 32.578125 Z M 19.039062 32.578125" stroke-linecap="round" />
</g>
		<g transform="matrix(1.33 0 0 1.33 569.78 36.42)"  >
<path style="stroke: none; stroke-width: 1; stroke-dasharray: none; stroke-linecap: butt; stroke-dashoffset: 0; stroke-linejoin: miter; stroke-miterlimit: 4; fill: rgb(4,83,255); fill-rule: nonzero; opacity: 1;" vector-effect="non-scaling-stroke"  transform=" translate(-43.29, 43.98)" d="M 6.316406 -62.117188 C 6.316406 -49.152344 14.851562 -40.453125 31.507812 -36.679688 L 47.757812 -33.070312 C 55.632812 -31.179688 58.589844 -28.71875 58.589844 -24.289062 C 58.589844 -18.542969 53.089844 -14.933594 43.980469 -14.933594 C 34.464844 -14.933594 28.636719 -19.203125 27.488281 -26.585938 L 4.101562 -26.585938 C 5.414062 -9.4375 19.859375 1.886719 43.324219 1.886719 C 66.546875 1.886719 82.46875 -9.519531 82.46875 -26.832031 C 82.46875 -39.960938 75.328125 -46.9375 57.6875 -50.875 L 40.863281 -54.484375 C 33.152344 -56.289062 29.375 -59.246094 29.375 -63.59375 C 29.375 -69.253906 34.792969 -73.03125 43.078125 -73.03125 C 51.941406 -73.03125 57.605469 -68.679688 58.097656 -61.625 L 80.167969 -61.625 C 79.839844 -78.691406 65.480469 -89.851562 43.40625 -89.851562 C 20.84375 -89.851562 6.316406 -78.855469 6.316406 -62.117188 Z M 6.316406 -62.117188" stroke-linecap="round" />
</g>
		<g transform="matrix(1.33 0 0 1.33 -472.45 -0.37)" clip-path="url(#CLIPPATH_4)"  >
<clipPath id="CLIPPATH_4" >
	<path transform="matrix(1 0 0 1 -0.22 -0.22) translate(-123.93, -269.5)" d="M 11.597656 157.164062 L 236.269531 157.164062 L 236.269531 164.171875 L 11.597656 164.171875 Z M 229.113281 164.171875 L 236.269531 164.171875 L 236.269531 374.683594 L 229.113281 374.683594 Z M 11.597656 164.171875 L 18.601562 164.171875 L 18.601562 374.683594 L 11.597656 374.683594 Z M 11.597656 374.683594 L 236.269531 374.683594 L 236.269531 381.839844 L 11.597656 381.839844 Z M 11.597656 374.683594" stroke-linecap="round" />
</clipPath>
<path style="stroke: none; stroke-width: 1; stroke-dasharray: none; stroke-linecap: butt; stroke-dashoffset: 0; stroke-linejoin: miter; stroke-miterlimit: 4; fill: rgb(255,255,255); fill-rule: nonzero; opacity: 1;" vector-effect="non-scaling-stroke"  transform=" translate(-124.16, -269.72)" d="M 11.597656 157.164062 L 236.71875 157.164062 L 236.71875 382.285156 L 11.597656 382.285156 Z M 11.597656 157.164062" stroke-linecap="round" />
</g>
		<g transform="matrix(1.75 0 0 1.75 -437.15 14.93)"  >
<path style="stroke: rgb(255,255,255); stroke-width: 4.8; stroke-dasharray: none; stroke-linecap: butt; stroke-dashoffset: 0; stroke-linejoin: miter; stroke-miterlimit: 4; fill: none; fill-rule: nonzero; opacity: 1;" vector-effect="non-scaling-stroke"  transform=" translate(-59.51, -76.16)" d="M 10.532007 96.314985 C 11.094289 113.251885 24.904423 123.563372 46.589486 123.563372 C 68.964759 123.563372 83.149747 112.502175 83.149747 95.002992 C 83.149747 81.252359 75.274817 73.502381 57.213352 69.62888 L 46.277107 67.317274 C 35.903144 64.943192 31.529836 61.816426 31.529836 56.256077 C 31.529836 49.568188 37.777419 45.132404 47.089293 45.132404 C 56.526118 45.132404 63.214007 49.755616 63.838765 57.380642 L 81.525376 57.380642 C 81.212996 41.0685 68.027621 30.257206 47.026817 30.257206 C 26.903649 30.257206 12.531233 41.255928 12.531233 57.880449 C 12.531233 71.065824 20.718542 79.503036 37.340088 83.064158 L 49.091494 85.628642 C 59.965264 88.0652 64.276096 91.313943 64.276096 97.189646 C 64.276096 103.815059 57.40078 108.625698 47.339196 108.625698 C 37.340088 108.625698 29.593085 103.752583 28.718424 96.314985 Z M 89.617483 122.001476 L 107.866376 122.001476 L 107.866376 55.00656 L 89.617483 55.00656 Z M 98.741929 47.631437 C 104.242778 47.631437 108.491134 43.442582 108.491134 38.194612 C 108.491134 32.881191 104.242778 28.757786 98.741929 28.757786 C 93.244056 28.757786 88.992725 32.881191 88.992725 38.194612 C 88.992725 43.442582 93.244056 47.631437 98.741929 47.631437 Z M 98.741929 47.631437" stroke-linecap="round" />
</g>
		<g transform="matrix(1.33 0 0 1.33 -586.4 -106.13)"  >
<path style="stroke: none; stroke-width: 1; stroke-dasharray: none; stroke-linecap: butt; stroke-dashoffset: 0; stroke-linejoin: miter; stroke-miterlimit: 4; fill: rgb(255,255,255); fill-rule: nonzero; opacity: 1;" vector-effect="non-scaling-stroke"  transform=" translate(-9.46, 16.03)" d="M 10.289062 0 L 16.933594 0 L 16.933594 -32.066406 L 10.265625 -32.066406 L 1.976562 -26.308594 L 1.976562 -20.265625 L 10.15625 -25.910156 L 10.289062 -25.910156 Z M 10.289062 0" stroke-linecap="round" />
</g>
		<g transform="matrix(1.33 0 0 1.33 -550.1 -106.13)"  >
<path style="stroke: none; stroke-width: 1; stroke-dasharray: none; stroke-linecap: butt; stroke-dashoffset: 0; stroke-linejoin: miter; stroke-miterlimit: 4; fill: rgb(255,255,255); fill-rule: nonzero; opacity: 1;" vector-effect="non-scaling-stroke"  transform=" translate(-14.86, 16.03)" d="M 17.554688 0 L 23.933594 0 L 23.933594 -5.710938 L 28.109375 -5.710938 L 28.109375 -11.089844 L 23.933594 -11.089844 L 23.933594 -32.066406 L 14.464844 -32.066406 C 7.886719 -22.375 4.398438 -16.753906 1.601562 -11.421875 L 1.601562 -5.710938 L 17.554688 -5.710938 Z M 7.488281 -11.066406 C 10.089844 -16.089844 12.886719 -20.464844 17.554688 -27.308594 L 17.6875 -27.308594 L 17.6875 -10.886719 L 7.488281 -10.886719 Z M 7.488281 -11.066406" stroke-linecap="round" />
</g>
</g>
</g>
</svg>