<svg xmlns="http://www.w3.org/2000/svg" xmlns:xlink="http://www.w3.org/1999/xlink" width="500" zoomAndPan="magnify" viewBox="0 0 375 74.999997" height="100" preserveAspectRatio="xMidYMid meet" version="1.0"><defs><g/><clipPath id="7f5d3f0688"><path d="M 40.546875 4.609375 L 105.953125 4.609375 L 105.953125 70.015625 L 40.546875 70.015625 Z M 40.546875 4.609375 " clip-rule="nonzero"/></clipPath></defs><g fill="#ffffff" fill-opacity="1"><g transform="translate(105.541732, 59.958882)"><g><path d="M 2.578125 -35.5625 L 9.015625 -35.5625 L 9.015625 0 L 2.578125 0 Z M 2.578125 -35.5625 "/></g></g></g><g fill="#ffffff" fill-opacity="1"><g transform="translate(117.11901, 59.958882)"><g><path d="M 5.78125 -36.21875 C 6.90625 -36.21875 7.875 -35.804688 8.6875 -34.984375 C 9.5 -34.171875 9.90625 -33.1875 9.90625 -32.03125 C 9.90625 -30.875 9.503906 -29.890625 8.703125 -29.078125 C 7.898438 -28.273438 6.941406 -27.875 5.828125 -27.875 C 4.679688 -27.875 3.703125 -28.285156 2.890625 -29.109375 C 2.078125 -29.929688 1.671875 -30.9375 1.671875 -32.125 C 1.671875 -33.25 2.070312 -34.210938 2.875 -35.015625 C 3.675781 -35.816406 4.644531 -36.21875 5.78125 -36.21875 Z M 2.546875 -25.65625 L 9.015625 -25.65625 L 9.015625 0 L 2.546875 0 Z M 2.546875 -25.65625 "/></g></g></g><g fill="#ffffff" fill-opacity="1"><g transform="translate(128.696288, 59.958882)"><g><path d="M 28.375 -20.46875 L 23.015625 -17.515625 C 22.003906 -18.578125 21.007812 -19.3125 20.03125 -19.71875 C 19.050781 -20.125 17.898438 -20.328125 16.578125 -20.328125 C 14.171875 -20.328125 12.222656 -19.609375 10.734375 -18.171875 C 9.253906 -16.734375 8.515625 -14.890625 8.515625 -12.640625 C 8.515625 -10.453125 9.226562 -8.664062 10.65625 -7.28125 C 12.09375 -5.90625 13.972656 -5.21875 16.296875 -5.21875 C 19.171875 -5.21875 21.410156 -6.195312 23.015625 -8.15625 L 28.09375 -4.6875 C 25.332031 -1.125 21.445312 0.65625 16.4375 0.65625 C 11.925781 0.65625 8.390625 -0.675781 5.828125 -3.34375 C 3.273438 -6.019531 2 -9.148438 2 -12.734375 C 2 -15.210938 2.617188 -17.5 3.859375 -19.59375 C 5.109375 -21.6875 6.84375 -23.328125 9.0625 -24.515625 C 11.289062 -25.710938 13.78125 -26.3125 16.53125 -26.3125 C 19.082031 -26.3125 21.367188 -25.804688 23.390625 -24.796875 C 25.421875 -23.785156 27.082031 -22.34375 28.375 -20.46875 Z M 28.375 -20.46875 "/></g></g></g><g fill="#ffffff" fill-opacity="1"><g transform="translate(159.608314, 59.958882)"><g><path d="M 15.3125 -26.3125 C 17.726562 -26.3125 20 -25.707031 22.125 -24.5 C 24.257812 -23.289062 25.921875 -21.644531 27.109375 -19.5625 C 28.304688 -17.488281 28.90625 -15.253906 28.90625 -12.859375 C 28.90625 -10.429688 28.300781 -8.164062 27.09375 -6.0625 C 25.894531 -3.957031 24.257812 -2.3125 22.1875 -1.125 C 20.113281 0.0625 17.828125 0.65625 15.328125 0.65625 C 11.648438 0.65625 8.507812 -0.648438 5.90625 -3.265625 C 3.300781 -5.878906 2 -9.0625 2 -12.8125 C 2 -16.8125 3.472656 -20.148438 6.421875 -22.828125 C 8.992188 -25.148438 11.957031 -26.3125 15.3125 -26.3125 Z M 15.40625 -20.25 C 13.40625 -20.25 11.738281 -19.550781 10.40625 -18.15625 C 9.082031 -16.769531 8.421875 -14.992188 8.421875 -12.828125 C 8.421875 -10.597656 9.078125 -8.789062 10.390625 -7.40625 C 11.703125 -6.019531 13.363281 -5.328125 15.375 -5.328125 C 17.382812 -5.328125 19.054688 -6.023438 20.390625 -7.421875 C 21.734375 -8.828125 22.40625 -10.628906 22.40625 -12.828125 C 22.40625 -15.023438 21.75 -16.8125 20.4375 -18.1875 C 19.125 -19.5625 17.445312 -20.25 15.40625 -20.25 Z M 15.40625 -20.25 "/></g></g></g><g fill="#ffffff" fill-opacity="1"><g transform="translate(190.520341, 59.958882)"><g><path d="M 3.25 -25.65625 L 9.671875 -25.65625 L 9.671875 -23.046875 C 11.128906 -24.265625 12.453125 -25.113281 13.640625 -25.59375 C 14.828125 -26.070312 16.039062 -26.3125 17.28125 -26.3125 C 19.832031 -26.3125 21.992188 -25.425781 23.765625 -23.65625 C 25.265625 -22.144531 26.015625 -19.910156 26.015625 -16.953125 L 26.015625 0 L 19.640625 0 L 19.640625 -11.25 C 19.640625 -14.3125 19.5 -16.34375 19.21875 -17.34375 C 18.945312 -18.351562 18.46875 -19.125 17.78125 -19.65625 C 17.101562 -20.1875 16.265625 -20.453125 15.265625 -20.453125 C 13.953125 -20.453125 12.828125 -20.015625 11.890625 -19.140625 C 10.960938 -18.265625 10.316406 -17.054688 9.953125 -15.515625 C 9.765625 -14.710938 9.671875 -12.976562 9.671875 -10.3125 L 9.671875 0 L 3.25 0 Z M 3.25 -25.65625 "/></g></g></g><g fill="#ffffff" fill-opacity="1"><g transform="translate(219.498891, 59.958882)"><g><path d="M 3.984375 -34.6875 L 11.8125 -34.6875 C 16.863281 -34.6875 20.613281 -34.0625 23.0625 -32.8125 C 25.519531 -31.5625 27.539062 -29.53125 29.125 -26.71875 C 30.707031 -23.90625 31.5 -20.617188 31.5 -16.859375 C 31.5 -14.191406 31.054688 -11.734375 30.171875 -9.484375 C 29.285156 -7.242188 28.0625 -5.382812 26.5 -3.90625 C 24.9375 -2.4375 23.238281 -1.414062 21.40625 -0.84375 C 19.582031 -0.28125 16.425781 0 11.9375 0 L 3.984375 0 Z M 10.5625 -28.328125 L 10.5625 -6.46875 L 13.625 -6.46875 C 16.644531 -6.46875 18.832031 -6.8125 20.1875 -7.5 C 21.550781 -8.1875 22.664062 -9.347656 23.53125 -10.984375 C 24.394531 -12.617188 24.828125 -14.632812 24.828125 -17.03125 C 24.828125 -20.707031 23.800781 -23.5625 21.75 -25.59375 C 19.882812 -27.414062 16.90625 -28.328125 12.8125 -28.328125 Z M 10.5625 -28.328125 "/></g></g></g><g fill="#ffffff" fill-opacity="1"><g transform="translate(253.311121, 59.958882)"><g><path d="M 22.21875 -25.65625 L 28.625 -25.65625 L 28.625 0 L 22.21875 0 L 22.21875 -2.71875 C 20.957031 -1.519531 19.691406 -0.65625 18.421875 -0.125 C 17.160156 0.394531 15.789062 0.65625 14.3125 0.65625 C 11 0.65625 8.128906 -0.625 5.703125 -3.1875 C 3.285156 -5.757812 2.078125 -8.957031 2.078125 -12.78125 C 2.078125 -16.738281 3.25 -19.984375 5.59375 -22.515625 C 7.9375 -25.046875 10.78125 -26.3125 14.125 -26.3125 C 15.664062 -26.3125 17.113281 -26.019531 18.46875 -25.4375 C 19.820312 -24.863281 21.070312 -23.992188 22.21875 -22.828125 Z M 15.453125 -20.375 C 13.453125 -20.375 11.789062 -19.671875 10.46875 -18.265625 C 9.144531 -16.859375 8.484375 -15.054688 8.484375 -12.859375 C 8.484375 -10.640625 9.15625 -8.8125 10.5 -7.375 C 11.84375 -5.945312 13.5 -5.234375 15.46875 -5.234375 C 17.5 -5.234375 19.179688 -5.9375 20.515625 -7.34375 C 21.847656 -8.75 22.515625 -10.59375 22.515625 -12.875 C 22.515625 -15.101562 21.847656 -16.910156 20.515625 -18.296875 C 19.179688 -19.679688 17.492188 -20.375 15.453125 -20.375 Z M 15.453125 -20.375 "/></g></g></g><g fill="#ffffff" fill-opacity="1"><g transform="translate(285.189876, 59.958882)"><g><path d="M 0.40625 -25.65625 L 6.984375 -25.65625 L 13.65625 -9.546875 L 21.015625 -25.65625 L 27.609375 -25.65625 L 11.53125 9.390625 L 4.875 9.390625 L 10.15625 -1.90625 Z M 0.40625 -25.65625 "/></g></g></g><g fill="#ffffff" fill-opacity="1"><g transform="translate(313.201681, 59.958882)"><g><path d="M 18.953125 -22.078125 L 14.96875 -18.09375 C 13.351562 -19.695312 11.882812 -20.5 10.5625 -20.5 C 9.84375 -20.5 9.273438 -20.34375 8.859375 -20.03125 C 8.453125 -19.726562 8.25 -19.347656 8.25 -18.890625 C 8.25 -18.546875 8.378906 -18.226562 8.640625 -17.9375 C 8.898438 -17.644531 9.539062 -17.25 10.5625 -16.75 L 12.921875 -15.5625 C 15.410156 -14.332031 17.117188 -13.082031 18.046875 -11.8125 C 18.972656 -10.539062 19.4375 -9.046875 19.4375 -7.328125 C 19.4375 -5.054688 18.597656 -3.15625 16.921875 -1.625 C 15.242188 -0.101562 13 0.65625 10.1875 0.65625 C 6.445312 0.65625 3.457031 -0.800781 1.21875 -3.71875 L 5.1875 -8.046875 C 5.9375 -7.160156 6.816406 -6.445312 7.828125 -5.90625 C 8.847656 -5.363281 9.753906 -5.09375 10.546875 -5.09375 C 11.390625 -5.09375 12.070312 -5.296875 12.59375 -5.703125 C 13.113281 -6.109375 13.375 -6.582031 13.375 -7.125 C 13.375 -8.113281 12.4375 -9.078125 10.5625 -10.015625 L 8.390625 -11.109375 C 4.242188 -13.203125 2.171875 -15.816406 2.171875 -18.953125 C 2.171875 -20.984375 2.953125 -22.71875 4.515625 -24.15625 C 6.078125 -25.59375 8.078125 -26.3125 10.515625 -26.3125 C 12.179688 -26.3125 13.75 -25.945312 15.21875 -25.21875 C 16.6875 -24.488281 17.929688 -23.441406 18.953125 -22.078125 Z M 18.953125 -22.078125 "/></g></g></g><g clip-path="url(#7f5d3f0688)"><path stroke-linecap="butt" transform="matrix(1.09757, 0, 0, 1.084209, 40.547973, 4.608704)" fill="none" stroke-linejoin="miter" d="M -0.00100038 0.000619121 L 59.590894 0.000619121 L 59.590894 60.326867 L -0.00100038 60.326867 L -0.00100038 0.000619121 " stroke="#ffffff" stroke-width="3.439931" stroke-opacity="1" stroke-miterlimit="4"/></g><g fill="#ffffff" fill-opacity="1"><g transform="translate(66.531811, 59.958882)"><g><path d="M 22.140625 -29.96875 L 17.265625 -25.65625 C 15.546875 -28.050781 13.800781 -29.25 12.03125 -29.25 C 11.164062 -29.25 10.457031 -29.015625 9.90625 -28.546875 C 9.351562 -28.078125 9.078125 -27.554688 9.078125 -26.984375 C 9.078125 -26.398438 9.273438 -25.847656 9.671875 -25.328125 C 10.203125 -24.640625 11.8125 -23.15625 14.5 -20.875 C 17.019531 -18.757812 18.546875 -17.429688 19.078125 -16.890625 C 20.410156 -15.535156 21.351562 -14.238281 21.90625 -13 C 22.46875 -11.769531 22.75 -10.425781 22.75 -8.96875 C 22.75 -6.113281 21.765625 -3.757812 19.796875 -1.90625 C 17.835938 -0.0507812 15.28125 0.875 12.125 0.875 C 9.65625 0.875 7.503906 0.269531 5.671875 -0.9375 C 3.835938 -2.15625 2.269531 -4.0625 0.96875 -6.65625 L 6.515625 -10 C 8.179688 -6.9375 10.097656 -5.40625 12.265625 -5.40625 C 13.390625 -5.40625 14.335938 -5.734375 15.109375 -6.390625 C 15.878906 -7.046875 16.265625 -7.804688 16.265625 -8.671875 C 16.265625 -9.460938 15.972656 -10.25 15.390625 -11.03125 C 14.816406 -11.820312 13.539062 -13.023438 11.5625 -14.640625 C 7.78125 -17.722656 5.335938 -20.101562 4.234375 -21.78125 C 3.140625 -23.457031 2.59375 -25.128906 2.59375 -26.796875 C 2.59375 -29.191406 3.507812 -31.25 5.34375 -32.96875 C 7.175781 -34.695312 9.4375 -35.5625 12.125 -35.5625 C 13.851562 -35.5625 15.5 -35.160156 17.0625 -34.359375 C 18.625 -33.554688 20.316406 -32.09375 22.140625 -29.96875 Z M 22.140625 -29.96875 "/></g></g></g><g fill="#ffffff" fill-opacity="1"><g transform="translate(91.643413, 59.958882)"><g><path d="M 5.78125 -36.21875 C 6.90625 -36.21875 7.875 -35.804688 8.6875 -34.984375 C 9.5 -34.171875 9.90625 -33.1875 9.90625 -32.03125 C 9.90625 -30.875 9.503906 -29.890625 8.703125 -29.078125 C 7.898438 -28.273438 6.941406 -27.875 5.828125 -27.875 C 4.679688 -27.875 3.703125 -28.285156 2.890625 -29.109375 C 2.078125 -29.929688 1.671875 -30.9375 1.671875 -32.125 C 1.671875 -33.25 2.070312 -34.210938 2.875 -35.015625 C 3.675781 -35.816406 4.644531 -36.21875 5.78125 -36.21875 Z M 2.546875 -25.65625 L 9.015625 -25.65625 L 9.015625 0 L 2.546875 0 Z M 2.546875 -25.65625 "/></g></g></g><g fill="#ffffff" fill-opacity="1"><g transform="translate(45.672275, 19.255659)"><g><path d="M 2.0625 -9.03125 L 4.640625 -9.03125 L 4.640625 0 L 2.9375 0 L 2.9375 -7.421875 L 1.078125 -7.421875 Z M 2.0625 -9.03125 "/></g></g></g><g fill="#ffffff" fill-opacity="1"><g transform="translate(52.713065, 19.255659)"><g><path d="M 4.15625 -9.265625 L 5.890625 -9.265625 L 5.890625 -3.453125 L 6.6875 -3.453125 L 6.6875 -1.859375 L 5.890625 -1.859375 L 5.890625 0 L 4.203125 0 L 4.203125 -1.859375 L 0.265625 -1.859375 L 0.265625 -3.453125 Z M 4.203125 -3.453125 L 4.203125 -6.46875 L 2.140625 -3.453125 Z M 4.203125 -3.453125 "/></g></g></g></svg>