<?xml version="1.0" standalone="no"?>
<!DOCTYPE svg PUBLIC "-//W3C//DTD SVG 20010904//EN"
 "http://www.w3.org/TR/2001/REC-SVG-20010904/DTD/svg10.dtd">
<svg version="1.0" xmlns="http://www.w3.org/2000/svg"
 width="1000.000000pt" height="1000.000000pt" viewBox="0 0 1000.000000 1000.000000"
 preserveAspectRatio="xMidYMid meet">

<g transform="translate(0.000000,1000.000000) scale(0.100000,-0.100000)"
fill="#000000" stroke="none">
<path d="M4580 9993 c-317 -32 -521 -66 -775 -128 -1799 -437 -3222 -1854
-3666 -3650 -46 -187 -80 -369 -110 -585 -18 -129 -22 -221 -26 -544 -5 -406
1 -533 38 -791 238 -1671 1299 -3104 2830 -3825 500 -236 1001 -376 1589 -446
185 -22 683 -30 892 -15 1068 79 2039 472 2873 1165 154 129 472 447 601 601
693 834 1086 1805 1165 2873 15 209 7 707 -15 892 -82 692 -270 1289 -589
1871 -642 1170 -1727 2037 -3008 2405 -290 83 -630 146 -929 173 -104 10 -786
13 -870 4z m913 -2937 c110 -54 187 -175 187 -294 0 -49 -679 -3506 -709
-3610 -15 -51 -56 -116 -96 -151 -172 -151 -427 -99 -531 109 -53 104 -65 31
325 1980 194 971 361 1784 371 1806 35 80 116 152 203 180 67 22 184 13 250
-20z m-2099 -436 c73 -28 147 -99 183 -175 23 -50 27 -74 27 -140 0 -147 10
-135 -518 -665 -434 -435 -465 -468 -482 -520 -28 -82 -24 -181 10 -256 24
-52 84 -116 485 -519 496 -498 493 -494 507 -618 5 -42 1 -72 -16 -128 -19
-63 -30 -81 -84 -135 -53 -52 -73 -65 -130 -83 -38 -12 -85 -21 -105 -21 -50
0 -136 26 -180 55 -20 13 -347 335 -727 717 -775 777 -729 722 -729 873 0 149
-37 104 724 868 372 373 695 692 719 708 23 17 59 36 80 44 58 21 172 19 236
-5z m3476 -9 c61 -31 1418 -1385 1454 -1451 48 -87 50 -213 6 -307 -18 -38
-172 -198 -714 -740 -782 -783 -739 -747 -891 -747 -102 0 -178 32 -247 105
-66 70 -91 140 -86 244 6 136 -3 125 513 645 522 525 500 497 500 650 -1 140
8 130 -515 655 -433 435 -459 463 -480 520 -30 82 -25 197 12 270 42 82 119
147 208 176 14 5 63 7 110 6 64 -3 96 -9 130 -26z"/>
</g>
</svg>
