<?xml version="1.0" standalone="no"?>
<!DOCTYPE svg PUBLIC "-//W3C//DTD SVG 20010904//EN"
 "http://www.w3.org/TR/2001/REC-SVG-20010904/DTD/svg10.dtd">
<svg version="1.0" xmlns="http://www.w3.org/2000/svg"
 width="1001.000000pt" height="1001.000000pt" viewBox="0 0 1001.000000 1001.000000"
 preserveAspectRatio="xMidYMid meet">

<g transform="translate(0.000000,1001.000000) scale(0.100000,-0.100000)"
fill="#000000" stroke="none">
<path d="M4675 9999 c-930 -65 -1812 -378 -2558 -908 -421 -299 -819 -687
-1122 -1096 -544 -730 -865 -1561 -967 -2500 -18 -162 -18 -808 0 -970 68
-622 217 -1153 476 -1690 248 -513 551 -940 961 -1351 257 -258 467 -432 746
-621 1513 -1021 3479 -1134 5098 -292 472 246 838 515 1227 904 374 373 633
720 878 1173 758 1407 789 3126 82 4559 -161 327 -326 593 -528 853 -834 1073
-2034 1755 -3368 1914 -286 34 -654 44 -925 25z m-1045 -2743 c266 -36 554
-147 786 -302 201 -135 273 -154 589 -154 321 0 382 16 600 159 203 133 442
233 675 282 148 32 422 33 556 2 399 -93 719 -353 988 -803 197 -329 351 -703
451 -1096 137 -534 176 -1183 105 -1738 -50 -393 -109 -556 -250 -696 -112
-112 -229 -159 -397 -160 -153 0 -311 82 -567 298 -131 110 -457 438 -642 646
-129 146 -170 186 -219 212 -123 68 -61 65 -1321 62 l-1139 -3 -58 -22 c-103
-39 -151 -78 -289 -236 -171 -197 -554 -580 -688 -689 -246 -199 -384 -268
-534 -268 -256 1 -455 146 -550 400 -33 90 -79 319 -103 510 -26 209 -26 851
0 1060 84 677 281 1266 589 1760 368 590 846 852 1418 776z"/>
<path d="M6272 6500 c-196 -28 -342 -233 -302 -426 26 -123 97 -214 210 -268
57 -27 76 -31 150 -31 113 1 188 33 264 116 165 178 121 454 -91 566 -51 28
-76 35 -158 47 -11 2 -44 0 -73 -4z"/>
<path d="M3395 6244 c-11 -3 -44 -12 -72 -20 l-53 -15 0 -234 0 -235 -237 -2
-238 -3 -25 -60 c-21 -52 -25 -75 -25 -170 0 -95 4 -118 25 -170 l25 -60 228
-3 227 -2 0 -225 0 -224 29 -21 c97 -68 247 -74 384 -13 l57 26 0 228 0 229
234 0 233 0 26 58 c34 78 51 156 44 207 -8 55 -42 147 -68 179 l-20 26 -221 0
-220 0 3 228 4 227 -70 24 c-68 23 -222 37 -270 25z"/>
<path d="M7155 5947 c-104 -35 -187 -102 -230 -187 -92 -182 -25 -392 157
-491 60 -33 67 -34 168 -34 101 0 108 1 168 34 222 120 266 403 90 580 -88 89
-247 133 -353 98z"/>
<path d="M6247 5480 c-95 -24 -198 -105 -242 -190 -113 -222 22 -490 268 -530
164 -26 339 74 398 228 30 78 30 186 0 265 -31 80 -112 166 -191 201 -67 30
-170 42 -233 26z"/>
</g>
</svg>
