<?xml version="1.0" encoding="utf-8"?>
<!-- Generator: Adobe Illustrator 26.4.0, SVG Export Plug-In . SVG Version: 6.00 Build 0)  -->
<svg version="1.1" id="Layer_1" xmlns="http://www.w3.org/2000/svg" xmlns:xlink="http://www.w3.org/1999/xlink" x="0px" y="0px"
	 viewBox="0 0 260.83 138.36" style="enable-background:new 0 0 260.83 138.36;" xml:space="preserve">
<style type="text/css">
	.st0{fill:#0C215B;}
</style>
<rect x="65.01" y="19.48" transform="matrix(0.9658 0.2592 -0.2592 0.9658 13.9322 -21.2955)" class="st0" width="45.41" height="45.41"/>
<rect x="24.84" y="54.8" transform="matrix(0.7592 0.6509 -0.6509 0.7592 61.9002 -12.2809)" class="st0" width="45.41" height="45.41"/>
<rect x="79.48" y="69.96" class="st0" width="45.41" height="45.41"/>
<path class="st0" d="M132.51,78.19h3.38l1.4,11.73l1.37-11.73h2.99l1.4,11.73l1.37-11.73h3.38l-2.86,18.21h-3.49l-1.29-11.29
	l-1.32,11.29h-3.49L132.51,78.19z"/>
<path class="st0" d="M148.69,78.19h7.55v3.09h-4.17v4.46h3.19v2.79h-3.19v4.8h4.17v3.07h-7.55V78.19z"/>
<path class="st0" d="M157.73,78.19h7.55v3.09h-4.17v4.46h3.19v2.79h-3.19v4.8h4.17v3.07h-7.55V78.19z"/>
<path class="st0" d="M166.76,78.19h3.41v7.53h0.71l1.68-7.53h3.68l-2.42,8.85l2.42,9.36h-3.68l-1.68-7.89h-0.71v7.89h-3.41V78.19z"
	/>
<g>
	<path class="st0" d="M132.51,36.24h4.45c2.64,0,4.48,1.7,4.48,4.77v4.31c0,3.07-1.84,4.69-4.48,4.69h-1.04v4.44h-3.41V36.24z
		 M136.52,47c0.69,0,1.59-0.18,1.59-1.73v-4.23c0-1.52-0.85-1.73-1.59-1.73h-0.6V47H136.52z"/>
	<path class="st0" d="M144.79,36.24h3.63l3.43,18.21h-3.38l-0.49-3.07h-2.77l-0.52,3.07h-3.38L144.79,36.24z M147.57,48.67
		l-0.93-6.89l-0.99,6.89H147.57z"/>
	<path class="st0" d="M152.73,36.24h4.45c2.64,0,4.48,1.7,4.48,4.77v4.18c0,1.83-0.63,3.15-1.73,3.92l1.81,5.34h-3.65l-1.24-4.44
		h-0.71v4.44h-3.41V36.24z M156.74,47c0.69,0,1.57-0.18,1.57-1.73v-4.23c0-1.52-0.82-1.73-1.57-1.73h-0.6V47H156.74z"/>
	<path class="st0" d="M163.44,36.24h3.38v18.21h-3.38V36.24z"/>
	<path class="st0" d="M168.02,50.3h3.38c0,1.06,0.71,1.26,1.29,1.26c0.55,0,1.15-0.28,1.15-0.98c0-0.57-0.11-0.93-0.85-1.96
		l-3.32-4.67c-1.32-1.86-1.48-2.96-1.48-4.02c0-2.35,1.84-3.87,4.45-3.87c2.55,0,4.39,1.73,4.39,4.23h-3.32
		c0-0.98-0.63-1.21-1.13-1.21c-0.52,0-1.02,0.28-1.02,0.93c0,0.44,0.3,1.08,0.8,1.78l3.32,4.62c1.32,1.86,1.54,2.91,1.54,4.25
		c0,2.45-1.9,4-4.59,4S168.02,52.9,168.02,50.3z"/>
</g>
<g>
	<path class="st0" d="M132.51,57.22h4.2c2.64,0,4.48,1.29,4.48,3.61v2.73c0,1.37-0.49,2.17-1.43,2.55c0.96,0.41,1.57,1.13,1.57,2.71
		v3.07c0,2.29-1.84,3.53-4.5,3.53h-4.31V57.22z M136.58,64.93c0.52,0,1.26-0.08,1.26-0.88v-2.89c0-0.77-0.69-0.88-1.26-0.88h-0.69
		v4.64H136.58z M136.72,72.38c0.52,0,1.26-0.08,1.26-0.88v-3.22c0-0.8-0.69-0.9-1.26-0.9h-0.82v5H136.72z"/>
	<path class="st0" d="M143.12,57.22h3.41v15.14h3.71v3.07h-7.11V57.22z"/>
	<path class="st0" d="M151,71.24v-9.77c0-2.6,1.84-4.41,4.5-4.41c2.64,0,4.5,1.8,4.5,4.41v9.77c0,2.58-1.87,4.38-4.5,4.38
		C152.84,75.63,151,73.82,151,71.24z M155.5,72.56c0.47,0,1.1-0.13,1.1-1.21V61.34c0-1.08-0.58-1.21-1.1-1.21s-1.13,0.13-1.13,1.21
		v10.01C154.38,72.43,155.01,72.56,155.5,72.56z"/>
	<path class="st0" d="M161.74,71.24v-9.82c0-2.58,1.84-4.38,4.5-4.38c2.64,0,4.5,1.8,4.5,4.38v1.13h-3.41v-1.24
		c0-1.08-0.63-1.21-1.1-1.21c-0.49,0-1.13,0.13-1.13,1.21v10.03c0,1.11,0.6,1.21,1.13,1.21s1.1-0.1,1.1-1.21v-1.32h3.41v1.21
		c0,2.58-1.87,4.38-4.5,4.38C163.58,75.63,161.74,73.82,161.74,71.24z"/>
	<path class="st0" d="M172.2,57.22h3.41v7.53h0.71l1.68-7.53h3.68l-2.42,8.85l2.42,9.36H178l-1.68-7.89h-0.71v7.89h-3.41V57.22z"/>
	<path class="st0" d="M182.06,71.24v-9.82c0-2.58,1.84-4.38,4.5-4.38c2.64,0,4.5,1.8,4.5,4.38v1.13h-3.41v-1.24
		c0-1.08-0.63-1.21-1.1-1.21c-0.49,0-1.13,0.13-1.13,1.21v10.03c0,1.11,0.6,1.21,1.13,1.21c0.52,0,1.1-0.1,1.1-1.21v-1.32h3.41v1.21
		c0,2.58-1.87,4.38-4.5,4.38C183.9,75.63,182.06,73.82,182.06,71.24z"/>
	<path class="st0" d="M192.52,57.22h3.41v7.56h2.09v-7.56h3.38v18.21h-3.38v-7.87h-2.09v7.87h-3.41V57.22z"/>
	<path class="st0" d="M205.76,57.22h3.62l3.43,18.21h-3.38l-0.5-3.07h-2.77l-0.52,3.07h-3.38L205.76,57.22z M208.54,69.65
		l-0.93-6.88l-0.99,6.88H208.54z"/>
	<path class="st0" d="M213.7,57.22h3.38v18.21h-3.38V57.22z"/>
	<path class="st0" d="M219.11,57.22h3.21l2.44,9.05v-9.05h3.41v18.21h-3.21l-2.44-8.77v8.77h-3.41V57.22z"/>
</g>
<g>
	<path class="st0" d="M183.69,79.99h-2.8v-1.78h7.64v1.78h-2.86v16.4h-1.98V79.99z"/>
	<path class="st0" d="M191.82,78.19h2.06l3.79,18.21h-1.98l-0.8-4.07h-4.12l-0.82,4.07h-1.98L191.82,78.19z M194.65,90.72
		l-1.79-9.18l-1.81,9.18H194.65z"/>
	<path class="st0" d="M199.1,78.21h1.98v16.4h4.5v1.78h-6.48V78.21z"/>
	<path class="st0" d="M207.44,78.21h6.87v1.78h-4.92v6.32h3.6v1.62h-3.6v6.68h4.92v1.78h-6.87V78.21z"/>
	<path class="st0" d="M216.65,78.21h1.79l4.5,12.84V78.21h1.95v18.18h-1.81l-4.48-12.64v12.64h-1.95V78.21z"/>
	<path class="st0" d="M229.44,79.99h-2.8v-1.78h7.64v1.78h-2.86v16.4h-1.98V79.99z"/>
</g>
<g>
	<path class="st0" d="M134.51,109.16c0.76-1.06,1.44-1.98,1.44-2.77c0-0.48-0.31-0.63-0.67-0.63c-0.38,0-0.69,0.14-0.69,0.76h-2.08
		c0-1.59,1.15-2.64,2.75-2.64c1.63,0,2.78,1.02,2.78,2.48c0,1.31-0.96,2.66-1.85,3.95c-0.79,1.14-1.54,2.22-1.54,3.14h3.31v1.92
		h-5.44v-1.56C132.52,112.01,133.56,110.48,134.51,109.16z"/>
	<path class="st0" d="M138.95,112.75v-6.12c0-1.63,1.15-2.76,2.82-2.76c1.65,0,2.82,1.13,2.82,2.76v6.12c0,1.61-1.17,2.74-2.82,2.74
		C140.1,115.49,138.95,114.36,138.95,112.75z M141.77,113.57c0.29,0,0.69-0.08,0.69-0.76v-6.27c0-0.68-0.36-0.76-0.69-0.76
		s-0.7,0.08-0.7,0.76v6.27C141.06,113.49,141.46,113.57,141.77,113.57z"/>
	<path class="st0" d="M148.2,103.99h2.11l1.56,6.8l1.58-6.8h2.11v11.38h-2.11v-5.41l-0.91,3.82h-1.34l-0.89-3.79v5.38h-2.11V103.99z
		"/>
	<path class="st0" d="M158.29,103.99h2.27l2.15,11.38h-2.11l-0.31-1.92h-1.73l-0.33,1.92h-2.11L158.29,103.99z M160.02,111.75
		l-0.58-4.3l-0.62,4.3H160.02z"/>
	<path class="st0" d="M163.25,103.99h2.78c1.65,0,2.8,1.06,2.8,2.98v2.61c0,1.14-0.39,1.97-1.08,2.45l1.13,3.34h-2.28l-0.77-2.77
		h-0.45v2.77h-2.13V103.99z M165.76,110.71c0.43,0,0.98-0.11,0.98-1.08v-2.64c0-0.95-0.51-1.08-0.98-1.08h-0.38v4.8H165.76z"/>
	<path class="st0" d="M169.82,112.75v-6.14c0-1.61,1.15-2.74,2.82-2.74c1.65,0,2.82,1.13,2.82,2.74v0.71h-2.13v-0.77
		c0-0.68-0.39-0.76-0.69-0.76c-0.31,0-0.7,0.08-0.7,0.76v6.27c0,0.69,0.38,0.76,0.7,0.76s0.69-0.06,0.69-0.76v-0.82h2.13v0.76
		c0,1.61-1.17,2.74-2.82,2.74C170.97,115.49,169.82,114.36,169.82,112.75z"/>
	<path class="st0" d="M176.36,103.99h2.13v4.72h1.3v-4.72h2.11v11.38h-2.11v-4.92h-1.3v4.92h-2.13V103.99z"/>
	<path class="st0" d="M188,109.71c0.98-1.34,1.67-2.29,1.67-3.51c0-1.01-0.7-1.59-1.63-1.59c-0.91,0-1.63,0.63-1.63,1.64h-0.75
		c0-1.42,1-2.34,2.39-2.34c1.41,0,2.4,0.85,2.4,2.29c0,1.6-0.96,2.76-2.13,4.35c-0.94,1.31-1.89,2.59-1.89,4.11h3.88v0.71h-4.65
		v-0.4C185.64,112.78,186.91,111.19,188,109.71z"/>
	<path class="st0" d="M191.92,113.07v-6.78c0-1.42,1-2.38,2.42-2.38c1.44,0,2.45,0.97,2.45,2.38v6.78c0,1.39-1.01,2.37-2.45,2.37
		C192.92,115.44,191.92,114.46,191.92,113.07z M194.35,114.73c0.96,0,1.67-0.61,1.67-1.64v-6.83c0-1.03-0.69-1.66-1.67-1.66
		c-0.96,0-1.67,0.63-1.67,1.66v6.83C192.68,114.12,193.38,114.73,194.35,114.73z"/>
	<path class="st0" d="M200.54,109.71c0.98-1.34,1.67-2.29,1.67-3.51c0-1.01-0.7-1.59-1.63-1.59c-0.91,0-1.63,0.63-1.63,1.64h-0.75
		c0-1.42,1-2.34,2.39-2.34c1.41,0,2.4,0.85,2.4,2.29c0,1.6-0.96,2.76-2.13,4.35c-0.94,1.31-1.89,2.59-1.89,4.11h3.88v0.71h-4.65
		v-0.4C198.19,112.78,199.46,111.19,200.54,109.71z"/>
	<path class="st0" d="M204.14,113.15h0.77c0,1.05,0.74,1.63,1.68,1.63c0.96,0,1.67-0.63,1.67-1.82v-1.42c0-1.05-0.62-1.63-1.67-1.63
		h-0.84v-0.66h0.84c1.05,0,1.67-0.68,1.67-1.87v-0.92c0-1.31-0.7-1.84-1.67-1.84c-0.98,0-1.68,0.58-1.68,1.63h-0.76
		c0-1.39,0.89-2.34,2.44-2.34c1.46,0,2.46,0.82,2.46,2.56v0.97c0,1.05-0.55,1.87-1.48,2.16c1.13,0.34,1.48,1.16,1.48,2.37v0.87
		c0,1.43-0.76,2.63-2.46,2.63C205.04,115.48,204.14,114.49,204.14,113.15z"/>
</g>
</svg>
